<svg width="325" height="796" viewBox="0 0 325 796" fill="none" xmlns="http://www.w3.org/2000/svg">
<path opacity="0.32" d="M-179.645 764.737C-177.511 765.969 -175.618 767.394 -173.966 769.013C-172.298 770.604 -171.058 772.392 -170.245 774.376C-169.444 776.316 -169.134 778.435 -169.315 780.733C-169.496 783.03 -170.346 785.495 -171.866 788.128L-172.394 789.042L-176.282 795.776L-208.207 777.344L-204.319 770.61C-202.879 768.116 -201.213 766.159 -199.322 764.738C-197.43 763.318 -195.404 762.4 -193.243 761.985C-191.093 761.526 -188.851 761.546 -186.515 762.045C-184.207 762.527 -181.917 763.425 -179.645 764.737ZM-180.221 765.734C-182.355 764.502 -184.512 763.663 -186.693 763.217C-188.858 762.743 -190.95 762.718 -192.968 763.141C-194.97 763.537 -196.857 764.406 -198.63 765.748C-200.414 767.045 -201.978 768.858 -203.322 771.186L-206.634 776.923L-176.704 794.203L-173.392 788.466L-172.864 787.552C-171.456 785.113 -170.674 782.83 -170.517 780.703C-170.345 778.549 -170.642 776.567 -171.408 774.758C-172.185 772.905 -173.347 771.236 -174.892 769.753C-176.421 768.242 -178.198 766.902 -180.221 765.734ZM-181.673 749.817L-177.682 752.121L-172.594 743.308L-164.613 747.916L-169.701 756.729L-165.71 759.033L-158.798 747.061L-150.817 751.669L-162.337 771.622L-194.262 753.19L-182.742 733.237L-174.761 737.845L-181.673 749.817ZM-182.32 734.811L-192.688 752.769L-162.758 770.049L-152.39 752.091L-158.376 748.635L-165.288 760.607L-171.274 757.151L-166.186 748.338L-172.172 744.882L-177.26 753.695L-183.246 750.239L-176.334 738.267L-182.32 734.811ZM-144.942 723.831C-143.937 724.522 -143.116 725.403 -142.478 726.473C-141.867 727.528 -141.487 728.726 -141.338 730.068C-141.19 731.41 -141.299 732.881 -141.668 734.478C-142.048 736.033 -142.718 737.641 -143.678 739.304C-144.43 740.606 -145.322 741.736 -146.354 742.692C-147.386 743.648 -148.507 744.405 -149.716 744.963C-150.937 745.477 -152.224 745.787 -153.578 745.892C-154.96 745.981 -156.357 745.84 -157.768 745.469L-156.615 736.656L-155.461 736.769C-155.477 736.796 -155.312 736.799 -154.967 736.777C-154.605 736.727 -154.176 736.624 -153.679 736.467C-153.21 736.295 -152.745 736.064 -152.283 735.777C-151.821 735.489 -151.49 735.108 -151.29 734.632C-151.205 734.422 -151.135 734.204 -151.078 733.978C-151.049 733.736 -151.056 733.492 -151.099 733.246C-151.169 732.983 -151.277 732.755 -151.423 732.56C-151.581 732.321 -151.82 732.127 -152.141 731.979C-152.517 731.799 -152.982 731.771 -153.534 731.895C-154.07 731.992 -154.692 732.206 -155.4 732.536C-156.081 732.882 -156.717 733.217 -157.31 733.54C-157.93 733.846 -158.529 734.147 -159.106 734.443C-160.351 735.128 -161.521 735.746 -162.615 736.296C-163.721 736.803 -164.804 737.176 -165.865 737.413C-166.926 737.65 -168.003 737.693 -169.098 737.542C-170.205 737.346 -171.395 736.88 -172.67 736.144C-174.111 735.312 -175.204 734.293 -175.949 733.087C-176.694 731.881 -177.147 730.586 -177.307 729.2C-177.495 727.798 -177.423 726.361 -177.091 724.89C-176.759 723.419 -176.223 722.01 -175.483 720.664C-174.555 719.057 -173.503 717.779 -172.328 716.832C-171.153 715.885 -169.951 715.211 -168.723 714.812C-167.495 714.413 -166.274 714.249 -165.059 714.322C-163.845 714.395 -162.741 714.626 -161.746 715.016L-163.017 723.649C-163.398 723.54 -163.83 723.457 -164.314 723.399C-164.798 723.341 -165.278 723.341 -165.755 723.399C-166.259 723.44 -166.726 723.577 -167.156 723.809C-167.585 724.041 -167.928 724.379 -168.184 724.823C-168.44 725.266 -168.534 725.748 -168.465 726.268C-168.407 726.745 -168.115 727.135 -167.589 727.439C-167.201 727.663 -166.715 727.685 -166.13 727.505C-165.53 727.297 -164.685 726.954 -163.595 726.474L-163.619 726.516C-162.147 725.629 -160.684 724.792 -159.232 724.005C-157.78 723.218 -156.319 722.639 -154.848 722.268C-153.362 721.87 -151.849 721.746 -150.31 721.895C-148.782 722.002 -147.201 722.527 -145.566 723.471L-144.984 723.807L-144.942 723.831ZM-146.142 724.468C-147.639 723.604 -149.101 723.129 -150.53 723.044C-151.97 722.914 -153.397 723.051 -154.812 723.453C-156.227 723.856 -157.639 724.445 -159.047 725.22C-160.44 725.968 -161.842 726.766 -163.255 727.613C-164.492 728.155 -165.446 728.528 -166.118 728.731C-166.817 728.919 -167.5 728.821 -168.165 728.437C-169.024 727.941 -169.501 727.295 -169.597 726.501C-169.72 725.691 -169.582 724.939 -169.182 724.247C-168.862 723.692 -168.485 723.263 -168.051 722.96C-167.601 722.628 -167.136 722.398 -166.655 722.269C-166.202 722.124 -165.739 722.059 -165.267 722.073C-164.778 722.059 -164.336 722.093 -163.939 722.174C-163.788 721.079 -163.638 720.02 -163.491 718.997C-163.343 717.973 -163.186 716.901 -163.018 715.778C-163.862 715.512 -164.786 715.385 -165.791 715.397C-166.779 715.38 -167.78 715.578 -168.794 715.99C-169.82 716.359 -170.825 716.98 -171.809 717.852C-172.777 718.698 -173.669 719.827 -174.485 721.24C-175.162 722.475 -175.648 723.765 -175.943 725.109C-176.251 726.41 -176.328 727.696 -176.175 728.966C-176.033 730.194 -175.63 731.35 -174.964 732.437C-174.326 733.507 -173.369 734.411 -172.094 735.147C-170.958 735.803 -169.892 736.196 -168.896 736.328C-167.901 736.459 -166.902 736.426 -165.901 736.228C-164.912 735.986 -163.908 735.624 -162.89 735.14C-161.871 734.656 -160.791 734.098 -159.649 733.464L-155.896 731.474C-155.009 731.025 -154.225 730.757 -153.546 730.669C-152.851 730.553 -152.219 730.641 -151.648 730.933C-151.161 731.178 -150.785 731.487 -150.521 731.861C-150.269 732.192 -150.103 732.546 -150.026 732.923C-149.932 733.273 -149.904 733.64 -149.941 734.025C-149.979 734.41 -150.064 734.749 -150.196 735.042C-150.429 735.573 -150.786 736.031 -151.268 736.418C-151.762 736.761 -152.281 737.053 -152.826 737.293C-153.354 737.505 -153.879 737.645 -154.399 737.714C-154.92 737.783 -155.364 737.785 -155.733 737.72L-156.466 744.558C-154.103 745.072 -151.879 744.804 -149.794 743.754C-147.71 742.703 -146.003 741.028 -144.675 738.728C-143.811 737.231 -143.216 735.783 -142.888 734.384C-142.544 732.956 -142.429 731.637 -142.543 730.426C-142.656 729.215 -142.971 728.128 -143.487 727.165C-144.03 726.186 -144.735 725.391 -145.602 724.78L-146.142 724.468ZM-166.62 707.617L-136.69 724.897L-133.234 718.911L-163.164 701.631L-166.62 707.617ZM-131.661 718.49L-136.269 726.471L-168.194 708.039L-163.586 700.058L-131.661 718.49ZM-123.066 689.587C-122.582 690.605 -122.19 691.718 -121.89 692.926C-121.617 694.118 -121.47 695.367 -121.448 696.673C-121.438 697.935 -121.595 699.231 -121.918 700.559C-122.225 701.859 -122.739 703.133 -123.459 704.38C-124.563 706.292 -125.866 707.813 -127.367 708.941C-128.853 710.042 -130.446 710.785 -132.146 711.17C-133.858 711.512 -135.65 711.512 -137.522 711.17C-139.406 710.785 -141.278 710.092 -143.139 709.091L-149.541 705.395C-151.259 704.403 -152.75 703.21 -154.014 701.815C-155.262 700.393 -156.172 698.833 -156.744 697.135C-157.344 695.422 -157.558 693.617 -157.387 691.72C-157.215 689.824 -156.554 687.878 -155.402 685.883C-154.37 684.224 -153.291 682.963 -152.164 682.099C-151.065 681.218 -149.98 680.588 -148.911 680.208C-147.841 679.828 -146.818 679.624 -145.842 679.596C-144.893 679.553 -144.062 679.553 -143.347 679.596C-143.177 679.62 -142.941 679.627 -142.639 679.617C-142.337 679.606 -142.014 679.59 -141.668 679.567L-141.102 688.762C-141.514 688.709 -141.985 688.659 -142.512 688.613C-143.04 688.567 -143.572 688.593 -144.108 688.69C-144.644 688.786 -145.165 688.985 -145.671 689.284C-146.176 689.583 -146.613 690.052 -146.981 690.689C-147.701 691.936 -147.853 693.16 -147.438 694.361C-147.022 695.561 -146.122 696.561 -144.736 697.361L-138.709 700.841C-137.323 701.641 -135.955 701.895 -134.604 701.604C-133.237 701.284 -132.18 700.509 -131.432 699.278C-130.925 698.463 -130.657 697.712 -130.63 697.025C-130.631 696.323 -130.795 695.711 -131.122 695.189L-131.995 694.685L-133.891 697.969L-140.875 693.937L-134.539 682.963L-123.066 689.587ZM-139.301 693.516L-134.313 696.396L-132.417 693.112L-130.214 694.384C-129.741 695.1 -129.496 695.925 -129.481 696.858C-129.449 697.763 -129.767 698.762 -130.435 699.854C-130.867 700.602 -131.413 701.229 -132.074 701.734C-132.747 702.196 -133.477 702.532 -134.264 702.742C-135.062 702.91 -135.888 702.932 -136.741 702.809C-137.605 702.642 -138.453 702.319 -139.285 701.839L-145.312 698.359C-146.975 697.399 -148.055 696.166 -148.552 694.659C-149.05 693.153 -148.859 691.637 -147.979 690.113C-147.579 689.42 -147.138 688.88 -146.656 688.494C-146.174 688.107 -145.684 687.835 -145.187 687.679C-144.674 687.494 -144.174 687.395 -143.686 687.382C-143.197 687.368 -142.747 687.388 -142.334 687.441C-142.393 686.262 -142.463 685.168 -142.546 684.16C-142.629 683.151 -142.705 682.036 -142.775 680.813L-143.46 680.75C-144.102 680.712 -144.857 680.738 -145.722 680.829C-146.588 680.921 -147.506 681.167 -148.476 681.567C-149.458 681.924 -150.453 682.495 -151.461 683.281C-152.496 684.05 -153.485 685.123 -154.428 686.5C-155.424 688.29 -155.99 690.07 -156.125 691.839C-156.272 693.565 -156.076 695.211 -155.54 696.777C-155.003 698.344 -154.172 699.784 -153.046 701.099C-151.905 702.386 -150.545 703.486 -148.965 704.398L-142.563 708.094C-140.931 708.851 -139.257 709.375 -137.539 709.664C-135.806 709.926 -134.127 709.898 -132.502 709.579C-130.877 709.261 -129.37 708.635 -127.981 707.7C-126.591 706.766 -125.409 705.453 -124.433 703.763C-123.777 702.626 -123.305 701.458 -123.018 700.256C-122.731 699.055 -122.589 697.881 -122.592 696.734C-122.594 695.586 -122.715 694.483 -122.952 693.422C-123.201 692.317 -123.542 691.307 -123.974 690.393L-134.117 684.537L-139.301 693.516ZM-133.518 647.978L-101.593 666.41L-106.153 674.309L-124.19 673.871L-110.473 681.791L-115.321 690.188L-147.246 671.756L-142.662 663.816L-124.648 664.295L-138.366 656.375L-133.518 647.978ZM-121.869 664.57L-122.141 665.521L-142.048 665.057L-145.672 671.334L-115.742 688.614L-112.046 682.213L-127.011 673.573L-126.739 672.621L-106.766 673.067L-103.166 666.832L-133.096 649.552L-136.792 655.954L-121.869 664.57ZM-94.8411 636.572C-94.15 635.567 -93.9487 634.483 -94.2372 633.318C-94.5257 632.154 -95.0685 631.046 -95.8656 629.995L-87.9917 625.285C-87.5814 625.854 -87.0988 626.65 -86.5437 627.673C-85.9726 628.668 -85.5273 629.848 -85.2079 631.215C-84.9163 632.566 -84.8576 634.096 -85.0319 635.806C-85.2339 637.5 -85.9109 639.345 -87.0629 641.34C-88.3269 643.53 -89.7374 645.172 -91.2942 646.269C-92.851 647.365 -94.4834 648.049 -96.1913 648.319C-97.8833 648.562 -99.6193 648.464 -101.4 648.028C-103.207 647.575 -104.967 646.911 -106.678 646.034L-113.121 642.314C-114.684 641.374 -116.084 640.215 -117.321 638.836C-118.568 637.413 -119.5 635.859 -120.116 634.174C-120.759 632.472 -121.023 630.657 -120.907 628.728C-120.776 626.772 -120.134 624.796 -118.982 622.801C-117.974 621.055 -116.838 619.697 -115.576 618.726C-114.325 617.712 -113.02 616.987 -111.661 616.552C-110.329 616.102 -108.982 615.882 -107.621 615.892C-106.26 615.902 -104.97 616.037 -103.753 616.296L-103.871 625.428C-104.493 625.291 -105.148 625.208 -105.835 625.182C-106.549 625.139 -107.248 625.197 -107.931 625.357C-108.598 625.489 -109.193 625.718 -109.714 626.045C-110.263 626.357 -110.676 626.783 -110.952 627.326C-111.562 628.637 -111.633 629.945 -111.166 631.248C-110.7 632.552 -109.774 633.604 -108.388 634.404L-102.361 637.884C-100.975 638.684 -99.587 638.968 -98.1967 638.736C-96.7905 638.477 -95.672 637.755 -94.8411 636.572ZM-93.8914 637.231C-94.8983 638.719 -96.2418 639.606 -97.9221 639.893C-99.6023 640.179 -101.274 639.842 -102.937 638.882L-108.964 635.402C-110.627 634.442 -111.748 633.185 -112.329 631.63C-112.894 630.048 -112.783 628.449 -111.998 626.833C-111.69 626.235 -111.259 625.745 -110.705 625.362C-110.18 624.964 -109.595 624.655 -108.951 624.435C-108.307 624.216 -107.64 624.084 -106.949 624.039C-106.242 623.967 -105.575 623.964 -104.948 624.03L-104.841 617.22C-105.903 617.013 -107.016 616.924 -108.179 616.955C-109.343 616.986 -110.497 617.224 -111.642 617.672C-112.815 618.103 -113.945 618.781 -115.032 619.705C-116.104 620.601 -117.096 621.839 -118.008 623.419C-119.064 625.248 -119.646 627.055 -119.753 628.841C-119.872 630.583 -119.627 632.239 -119.019 633.809C-118.438 635.364 -117.577 636.785 -116.436 638.072C-115.295 639.359 -113.998 640.44 -112.545 641.316L-106.185 644.988C-104.636 645.697 -103.027 646.239 -101.357 646.611C-99.7159 646.968 -98.0928 647.036 -96.4883 646.817C-94.8678 646.571 -93.3271 645.982 -91.8663 645.052C-90.4172 644.078 -89.1406 642.635 -88.0366 640.723C-87.0606 639.032 -86.4503 637.463 -86.2057 636.015C-85.9888 634.552 -85.9751 633.248 -86.1645 632.104C-86.3656 630.916 -86.6904 629.879 -87.1389 628.992C-87.5875 628.105 -88.003 627.384 -88.3856 626.831C-89.4401 627.442 -90.3992 628.015 -91.2629 628.551C-92.1266 629.087 -93.0937 629.674 -94.1643 630.312C-93.4663 631.343 -93.0386 632.458 -92.8813 633.658C-92.7516 634.841 -93.0883 636.032 -93.8914 637.231ZM-72.839 616.608L-82.9545 615.312L-74.807 620.016L-79.415 627.997L-111.34 609.565L-105.604 599.63C-104.532 597.774 -103.345 596.39 -102.043 595.479C-100.769 594.552 -99.4308 593.994 -98.0289 593.806C-96.6546 593.601 -95.2421 593.715 -93.7913 594.146C-92.3522 594.534 -90.9399 595.127 -89.5542 595.927C-88.2795 596.663 -87.2414 597.521 -86.44 598.501C-85.6386 599.481 -85.0318 600.478 -84.6196 601.492C-84.1913 602.478 -83.9118 603.434 -83.781 604.36C-83.6618 605.241 -83.6493 605.988 -83.7433 606.598C-81.156 606.725 -78.4477 606.866 -75.6183 607.022C-72.8007 607.133 -70.1063 607.266 -67.535 607.421L-72.839 616.608ZM-85.4627 607.656C-85.2547 607.296 -85.1388 606.679 -85.1151 605.806C-85.0753 604.906 -85.2099 603.923 -85.5187 602.857C-85.8275 601.792 -86.3448 600.736 -87.0704 599.689C-87.8078 598.598 -88.8277 597.677 -90.1302 596.925C-91.405 596.189 -92.6905 595.631 -93.9868 595.253C-95.283 594.874 -96.5607 594.783 -97.8198 594.98C-99.0628 595.149 -100.262 595.657 -101.417 596.506C-102.583 597.31 -103.654 598.558 -104.63 600.248L-109.766 609.144L-79.8366 626.424L-76.3806 620.438C-77.988 619.51 -79.615 618.552 -81.2618 617.564C-82.9086 616.577 -84.5218 615.627 -86.1014 614.715L-85.7637 613.746L-73.4286 615.325L-69.4926 608.507L-85.4627 607.656ZM-86.2118 584.474L-82.2211 586.778L-77.1331 577.965L-69.1518 582.573L-74.2398 591.386L-70.2492 593.69L-63.3372 581.718L-55.3559 586.326L-66.8759 606.279L-98.8011 587.847L-87.2811 567.894L-79.2998 572.502L-86.2118 584.474ZM-86.8594 569.468L-97.2274 587.426L-67.2976 604.706L-56.9296 586.748L-62.9155 583.292L-69.8275 595.264L-75.8135 591.808L-70.7255 582.995L-76.7115 579.539L-81.7995 588.352L-87.7854 584.896L-80.8734 572.924L-86.8594 569.468ZM-52.2604 562.148L-55.3324 567.469L-48.7688 574.917L-53.9288 583.854L-80.454 556.069L-74.646 546.009L-37.3208 555.088L-42.4808 564.026L-52.2604 562.148ZM-39.0865 555.843C-45.0059 554.383 -50.8423 552.972 -56.5954 551.609C-62.3486 550.246 -68.1849 548.834 -74.1043 547.375L-79.0003 555.855L-54.1585 581.948L-50.1505 575.006L-56.7141 567.558L-52.8501 560.866L-43.0705 562.743L-39.0865 555.843ZM-50.607 522.805L-54.663 529.83L-30.7192 543.654L-35.3272 551.635L-59.271 537.811L-63.327 544.836L-71.3083 540.228L-58.5883 518.197L-50.607 522.805ZM-69.7347 539.807L-63.7487 543.263L-59.6927 536.237L-35.7488 550.061L-32.2928 544.076L-56.2367 530.252L-52.1807 523.226L-58.1667 519.77L-69.7347 539.807ZM-55.9249 515.888L-25.9951 533.168L-22.5391 527.182L-52.4689 509.902L-55.9249 515.888ZM-20.9654 526.76L-25.5734 534.741L-57.4986 516.309L-52.8906 508.328L-20.9654 526.76ZM-36.1146 479.271L-10.1174 507.971L-14.1254 514.913L-51.7146 506.291L-46.3866 497.063L-31.0041 500.179C-32.738 498.255 -34.4916 496.3 -36.2649 494.315C-38.0222 492.303 -39.7481 490.364 -41.4426 488.499L-36.1146 479.271ZM-27.8448 502.003L-45.7729 498.304L-49.9489 505.537C-43.9815 506.913 -38.1052 508.255 -32.32 509.563C-26.5348 510.87 -20.6585 512.212 -14.6911 513.588L-11.4991 508.06C-13.5846 505.784 -15.6287 503.532 -17.6311 501.305C-19.6612 499.061 -21.6855 496.839 -23.704 494.639C-25.7064 492.412 -27.7089 490.184 -29.7113 487.956C-31.7415 485.713 -33.7993 483.453 -35.8849 481.177L-40.0369 488.369L-27.8448 502.003ZM-22.743 474.543L-18.7524 476.847L-13.6644 468.034L-5.68309 472.642L-10.7711 481.455L-6.78045 483.759L0.131551 471.787L8.11284 476.395L-3.40716 496.348L-35.3323 477.916L-23.8123 457.963L-15.831 462.571L-22.743 474.543ZM-23.3907 459.537L-33.7587 477.494L-3.82882 494.774L6.53918 476.817L0.553213 473.361L-6.35879 485.332L-12.3448 481.876L-7.25676 473.064L-13.2427 469.608L-18.3307 478.42L-24.3167 474.964L-17.4047 462.993L-23.3907 459.537ZM32.1036 434.842L27.2557 443.239L18.9002 438.415L25.5517 446.19L22.5757 451.345L12.0941 449.339L20.8237 454.379L15.9757 462.776L-15.9495 444.344L-11.3655 436.404L9.09873 440.127C6.82031 437.482 4.5776 434.838 2.37061 432.197C0.151901 429.512 -2.08281 426.854 -4.33351 424.225L0.178486 416.41L32.1036 434.842ZM-2.95185 424.135L12.0501 441.831L-10.7519 437.645L-14.3759 443.922L15.554 461.202L19.25 454.801L8.44199 448.561L8.80371 447.55L21.962 450.103L24.17 446.279L15.6643 436.435L16.3585 435.617L26.834 441.665L30.53 435.263L0.600147 417.983L-2.95185 424.135ZM13.9132 411.052L17.9039 413.356L22.9919 404.544L30.9731 409.152L25.8851 417.964L29.8758 420.268L36.7878 408.296L44.7691 412.904L33.2491 432.858L1.32392 414.426L12.8439 394.472L20.8252 399.08L13.9132 411.052ZM13.2656 396.046L2.89758 414.004L32.8274 431.284L43.1954 413.326L37.2095 409.87L30.2975 421.842L24.3115 418.386L29.3995 409.573L23.4135 406.117L18.3255 414.93L12.3396 411.474L19.2516 399.502L13.2656 396.046ZM42.4256 380.099C44.5594 381.331 46.4523 382.757 48.1042 384.376C49.7721 385.967 51.0125 387.755 51.8253 389.739C52.6263 391.679 52.9364 393.798 52.7555 396.095C52.5746 398.393 51.7241 400.858 50.2041 403.491L49.6761 404.405L45.7881 411.139L13.863 392.707L17.751 385.973C19.191 383.479 20.8568 381.522 22.7485 380.101C24.6402 378.681 26.6665 377.763 28.8276 377.348C30.9769 376.889 33.2194 376.909 35.555 377.408C37.8629 377.89 40.1531 378.787 42.4256 380.099ZM41.8496 381.097C39.7157 379.865 37.5582 379.026 35.3772 378.58C33.2121 378.106 31.1205 378.08 29.1023 378.504C27.1001 378.9 25.2128 379.769 23.4406 381.11C21.6566 382.408 20.0926 384.221 18.7486 386.549L15.4366 392.286L45.3665 409.566L48.6785 403.829L49.2065 402.915C50.6145 400.476 51.3966 398.193 51.553 396.066C51.7253 393.912 51.4285 391.93 50.6626 390.121C49.8849 388.267 48.7234 386.599 47.1781 385.116C45.6488 383.605 43.8726 382.265 41.8496 381.097ZM29.622 367.716L59.5518 384.996L63.0078 379.01L33.078 361.73L29.622 367.716ZM64.5815 378.588L59.9735 386.57L28.0483 368.138L32.6563 360.156L64.5815 378.588ZM67.8099 354.181L64.7379 359.501L71.3015 366.949L66.1415 375.886L39.6163 348.101L45.4243 338.042L82.7495 347.12L77.5895 356.058L67.8099 354.181ZM80.9838 347.875C75.0643 346.415 69.228 345.004 63.4749 343.641C57.7217 342.278 51.8854 340.867 45.966 339.407L41.07 347.887L65.9118 373.98L69.9198 367.038L63.3562 359.59L67.2202 352.898L76.9998 354.775L80.9838 347.875ZM106.283 306.359L101.435 314.756L93.0799 309.932L99.7313 317.707L96.7553 322.862L86.2738 320.856L95.0033 325.896L90.1553 334.293L58.2302 315.861L62.8142 307.921L83.2784 311.644C81 308.999 78.7573 306.355 76.5503 303.714C74.3316 301.029 72.0969 298.371 69.8462 295.742L74.3582 287.927L106.283 306.359ZM71.2278 295.652L86.2298 313.348L63.4278 309.162L59.8038 315.439L89.7337 332.719L93.4297 326.318L82.6217 320.078L82.9834 319.067L96.1417 321.62L98.3497 317.796L89.8439 307.952L90.5382 307.134L101.014 313.182L104.71 306.78L74.7798 289.5L71.2278 295.652ZM109.505 281.962L106.433 287.283L112.997 294.731L107.837 303.668L81.3116 275.883L87.1196 265.823L124.445 274.902L119.285 283.839L109.505 281.962ZM122.679 275.656C116.76 274.197 110.923 272.786 105.17 271.423C99.417 270.059 93.5807 268.648 87.6613 267.189L82.7653 275.669L107.607 301.762L111.615 294.82L105.052 287.372L108.916 280.679L118.695 282.557L122.679 275.656ZM131.583 262.538L121.467 261.243L129.615 265.947L125.007 273.928L93.0817 255.496L98.8177 245.561C99.8897 243.705 101.077 242.321 102.379 241.41C103.653 240.483 104.991 239.925 106.393 239.737C107.767 239.532 109.18 239.646 110.631 240.077C112.07 240.464 113.482 241.058 114.868 241.858C116.142 242.594 117.18 243.452 117.982 244.432C118.783 245.412 119.39 246.409 119.802 247.423C120.231 248.409 120.51 249.365 120.641 250.291C120.76 251.172 120.773 251.918 120.679 252.529C123.266 252.656 125.974 252.797 128.803 252.952C131.621 253.064 134.316 253.197 136.887 253.352L131.583 262.538ZM118.959 253.587C119.167 253.227 119.283 252.61 119.307 251.737C119.346 250.836 119.212 249.854 118.903 248.788C118.594 247.723 118.077 246.667 117.351 245.62C116.614 244.529 115.594 243.608 114.292 242.856C113.017 242.12 111.731 241.562 110.435 241.184C109.139 240.805 107.861 240.714 106.602 240.91C105.359 241.08 104.16 241.588 103.005 242.436C101.839 243.241 100.767 244.488 99.7914 246.179L94.6554 255.075L124.585 272.355L128.041 266.369C126.434 265.441 124.807 264.483 123.16 263.495C121.513 262.507 119.9 261.558 118.32 260.646L118.658 259.677L130.993 261.256L134.929 254.438L118.959 253.587ZM127.553 232.751C131.207 232.31 135.003 231.879 138.942 231.456C142.898 231.005 146.688 230.551 150.314 230.095L144.602 239.989L136.459 240.941L142.154 244.229L137.546 252.21L105.621 233.778L110.229 225.797L116.298 229.301L112.701 221.515L118.413 211.622L127.553 232.751ZM113.986 221.592L118.923 232.146L110.65 227.37L107.194 233.356L137.124 250.636L140.58 244.65L132.848 240.186L143.892 238.914L148.14 231.556C144.618 231.961 141.06 232.364 137.466 232.765C133.872 233.166 130.328 233.577 126.833 233.998L118.258 214.193L113.986 221.592ZM131.663 207.103L135.654 209.407L140.742 200.595L148.723 205.203L143.635 214.015L147.626 216.319L154.538 204.347L162.519 208.955L150.999 228.909L119.074 210.477L130.594 190.523L138.575 195.131L131.663 207.103ZM131.016 192.097L120.648 210.055L150.577 227.335L160.945 209.377L154.959 205.921L148.047 217.893L142.061 214.437L147.149 205.624L141.163 202.168L136.075 210.981L130.09 207.525L137.002 195.553L131.016 192.097ZM152.338 171.293L148.282 178.318L172.226 192.142L167.618 200.124L143.674 186.3L139.618 193.325L131.637 188.717L144.357 166.685L152.338 171.293ZM133.211 188.295L139.197 191.751L143.253 184.726L167.196 198.55L170.652 192.564L146.709 178.74L150.765 171.715L144.779 168.259L133.211 188.295ZM147.02 164.376L176.95 181.656L180.406 175.67L150.476 158.39L147.02 164.376ZM181.98 175.248L177.372 183.23L145.447 164.798L150.055 156.816L181.98 175.248ZM164.959 131.002L196.884 149.434L192.324 157.332L174.286 156.894L188.004 164.814L183.156 173.211L151.231 154.779L155.815 146.84L173.829 147.319L160.111 139.399L164.959 131.002ZM176.608 147.593L176.336 148.544L156.428 148.081L152.804 154.358L182.734 171.638L186.43 165.236L171.465 156.596L171.737 155.645L191.71 156.091L195.31 149.855L165.38 132.575L161.684 138.977L176.608 147.593ZM205.059 121.258C205.543 122.276 205.935 123.389 206.235 124.597C206.508 125.789 206.655 127.038 206.677 128.344C206.687 129.606 206.53 130.901 206.207 132.23C205.9 133.53 205.386 134.804 204.666 136.051C203.562 137.963 202.259 139.484 200.758 140.612C199.272 141.713 197.679 142.456 195.979 142.841C194.267 143.183 192.475 143.183 190.603 142.841C188.719 142.456 186.847 141.763 184.986 140.762L178.584 137.066C176.866 136.074 175.375 134.881 174.111 133.486C172.863 132.063 171.953 130.503 171.381 128.806C170.781 127.093 170.567 125.288 170.738 123.391C170.909 121.495 171.571 119.549 172.723 117.553C173.755 115.895 174.834 114.634 175.961 113.769C177.06 112.889 178.145 112.259 179.214 111.879C180.283 111.498 181.306 111.295 182.283 111.267C183.232 111.224 184.063 111.224 184.778 111.266C184.948 111.291 185.184 111.298 185.486 111.287C185.788 111.277 186.111 111.26 186.457 111.238L187.023 120.433C186.61 120.38 186.14 120.33 185.613 120.284C185.085 120.238 184.553 120.264 184.017 120.36C183.48 120.457 182.96 120.655 182.454 120.955C181.949 121.254 181.512 121.723 181.144 122.36C180.424 123.607 180.272 124.831 180.687 126.031C181.103 127.232 182.003 128.232 183.389 129.032L189.416 132.512C190.802 133.312 192.17 133.566 193.521 133.275C194.888 132.955 195.945 132.18 196.693 130.949C197.2 130.134 197.468 129.383 197.495 128.696C197.494 127.993 197.33 127.382 197.003 126.86L196.13 126.356L194.234 129.64L187.25 125.608L193.586 114.634L205.059 121.258ZM188.824 125.186L193.812 128.066L195.708 124.782L197.911 126.054C198.384 126.771 198.629 127.596 198.644 128.529C198.676 129.434 198.358 130.432 197.69 131.525C197.258 132.273 196.712 132.9 196.051 133.405C195.378 133.866 194.648 134.202 193.861 134.413C193.063 134.58 192.237 134.603 191.384 134.48C190.52 134.313 189.672 133.99 188.84 133.51L182.813 130.03C181.15 129.07 180.07 127.837 179.572 126.33C179.075 124.823 179.266 123.308 180.146 121.784C180.546 121.091 180.987 120.551 181.469 120.164C181.951 119.778 182.441 119.506 182.938 119.349C183.45 119.165 183.951 119.066 184.439 119.052C184.928 119.039 185.378 119.059 185.791 119.112C185.732 117.933 185.662 116.839 185.579 115.831C185.496 114.822 185.42 113.706 185.35 112.484L184.665 112.421C184.022 112.382 183.268 112.409 182.403 112.5C181.537 112.592 180.619 112.838 179.649 113.238C178.667 113.595 177.672 114.166 176.664 114.951C175.629 115.721 174.64 116.794 173.697 118.171C172.7 119.961 172.135 121.74 172 123.51C171.853 125.236 172.048 126.882 172.585 128.448C173.122 130.014 173.953 131.455 175.078 132.77C176.22 134.057 177.58 135.156 179.16 136.068L185.562 139.764C187.194 140.522 188.868 141.045 190.586 141.335C192.319 141.597 193.998 141.568 195.623 141.25C197.248 140.932 198.755 140.305 200.144 139.371C201.533 138.436 202.716 137.124 203.692 135.433C204.348 134.297 204.82 133.128 205.107 131.927C205.394 130.726 205.536 129.551 205.533 128.404C205.531 127.257 205.41 126.153 205.173 125.093C204.924 123.988 204.583 122.978 204.151 122.063L194.008 116.207L188.824 125.186ZM227.067 83.1391C227.551 84.1574 227.943 85.2705 228.243 86.4785C228.515 87.6704 228.663 88.9194 228.685 90.2253C228.695 91.4876 228.538 92.7828 228.215 94.111C227.907 95.4115 227.394 96.6853 226.674 97.9324C225.57 99.8446 224.267 101.365 222.766 102.493C221.28 103.594 219.687 104.337 217.987 104.723C216.274 105.064 214.482 105.064 212.61 104.723C210.727 104.337 208.854 103.644 206.993 102.643L200.592 98.9475C198.874 97.9555 197.383 96.7621 196.119 95.3672C194.871 93.9447 193.961 92.3847 193.389 90.6874C192.789 88.974 192.575 87.169 192.746 85.2726C192.917 83.3761 193.579 81.4302 194.731 79.4348C195.762 77.7764 196.842 76.515 197.969 75.6508C199.068 74.7705 200.153 74.1403 201.222 73.7601C202.291 73.3798 203.314 73.176 204.291 73.1486C205.24 73.1052 206.071 73.1049 206.785 73.1478C206.956 73.1724 207.192 73.1794 207.494 73.1688C207.796 73.1582 208.119 73.1418 208.464 73.1195L209.031 82.3146C208.618 82.2612 208.148 82.2115 207.62 82.1654C207.093 82.1194 206.561 82.1449 206.025 82.2417C205.488 82.3385 204.967 82.5367 204.462 82.8361C203.957 83.1355 203.52 83.6039 203.152 84.2413C202.432 85.4883 202.28 86.7121 202.695 87.9127C203.11 89.1132 204.011 90.1135 205.396 90.9135L211.424 94.3935C212.81 95.1935 214.178 95.4476 215.529 95.156C216.896 94.8366 217.953 94.0614 218.7 92.8303C219.208 92.0149 219.475 91.2639 219.502 90.5774C219.502 89.8748 219.338 89.2629 219.01 88.7414L218.137 88.2374L216.241 91.5214L209.258 87.4894L215.594 76.5151L227.067 83.1391ZM210.832 87.0678L215.82 89.9478L217.716 86.6638L219.919 87.9358C220.392 88.6523 220.636 89.477 220.652 90.4098C220.684 91.315 220.366 92.3138 219.698 93.4063C219.266 94.1545 218.72 94.7812 218.058 95.2863C217.386 95.7477 216.656 96.0838 215.869 96.2946C215.07 96.4618 214.245 96.4839 213.392 96.361C212.527 96.1944 211.679 95.8711 210.848 95.3911L204.82 91.9111C203.158 90.9511 202.078 89.7179 201.58 88.2114C201.083 86.7048 201.274 85.1895 202.154 83.6653C202.554 82.9724 202.995 82.4326 203.477 82.0458C203.959 81.659 204.449 81.3873 204.945 81.2307C205.458 81.0464 205.959 80.9475 206.447 80.9338C206.935 80.9201 207.386 80.9399 207.798 80.9934C207.74 79.8143 207.67 78.7204 207.587 77.7119C207.504 76.7034 207.427 75.5877 207.358 74.3649L206.673 74.3023C206.03 74.2637 205.276 74.2901 204.41 74.3815C203.545 74.4729 202.627 74.7189 201.656 75.1195C200.674 75.4763 199.68 76.0474 198.672 76.8327C197.637 77.6021 196.647 78.6753 195.705 80.0524C194.708 81.842 194.143 83.6217 194.008 85.3913C193.861 87.1172 194.056 88.7633 194.593 90.3295C195.13 91.8958 195.961 93.3363 197.086 94.6511C198.228 95.9383 199.588 97.0378 201.168 97.9498L207.569 101.646C209.201 102.403 210.876 102.927 212.593 103.216C214.327 103.478 216.006 103.45 217.631 103.131C219.255 102.813 220.762 102.187 222.152 101.252C223.541 100.318 224.724 99.0053 225.7 97.3148C226.356 96.1786 226.828 95.0098 227.115 93.8084C227.402 92.6071 227.544 91.4328 227.541 90.2857C227.538 89.1386 227.418 88.0347 227.181 86.9739C226.932 85.8693 226.591 84.8596 226.158 83.9448L216.016 78.0888L210.832 87.0678ZM241.364 72.3917L231.249 71.0964L239.396 75.8004L234.788 83.7817L202.863 65.3497L208.599 55.4146C209.671 53.5579 210.858 52.174 212.16 51.2629C213.434 50.3358 214.772 49.7782 216.174 49.5899C217.548 49.3857 218.961 49.4991 220.412 49.9303C221.851 50.3177 223.263 50.9114 224.649 51.7114C225.924 52.4474 226.962 53.3054 227.763 54.2854C228.564 55.2654 229.171 56.2624 229.583 57.2763C230.012 58.2626 230.291 59.2184 230.422 60.1438C230.541 61.0255 230.554 61.7718 230.46 62.3826C233.047 62.5092 235.755 62.6503 238.585 62.8058C241.402 62.9175 244.097 63.0506 246.668 63.2049L241.364 72.3917ZM228.74 63.4406C228.948 63.0804 229.064 62.4637 229.088 61.5906C229.128 60.6898 228.993 59.7068 228.684 58.6417C228.376 57.5766 227.858 56.5205 227.133 55.4734C226.395 54.3825 225.375 53.4611 224.073 52.7091C222.798 51.9731 221.513 51.4157 220.216 51.0368C218.92 50.6579 217.642 50.5669 216.383 50.7637C215.14 50.9328 213.941 51.4415 212.786 52.2897C211.62 53.0942 210.549 54.3417 209.573 56.0322L204.437 64.928L234.366 82.208L237.822 76.2221C236.215 75.2941 234.588 74.3362 232.941 73.3485C231.295 72.3608 229.681 71.4109 228.102 70.4989L228.439 69.53L240.774 71.109L244.71 64.2917L228.74 63.4406ZM249.404 39.6509L246.332 44.9718L252.895 52.4193L247.735 61.3567L221.21 33.5716L227.018 23.5119L264.343 32.5908L259.183 41.5282L249.404 39.6509ZM262.578 33.345C256.658 31.8858 250.822 30.4746 245.069 29.1114C239.315 27.7481 233.479 26.3369 227.56 24.8777L222.664 33.3578L247.506 59.4505L251.514 52.5084L244.95 45.0609L248.814 38.3682L258.594 40.2455L262.578 33.345ZM238.716 3.25014C239.532 1.83679 240.518 0.706 241.672 -0.142225C242.827 -0.99045 244.094 -1.5524 245.472 -1.82807C246.851 -2.10374 248.319 -2.08728 249.878 -1.77869C251.409 -1.48609 252.978 -0.875794 254.585 0.052206C256.137 0.948206 257.436 1.99391 258.483 3.18931C259.502 4.36872 260.25 5.63226 260.728 6.97993C261.179 8.3116 261.331 9.7114 261.186 11.1793C261.029 12.6036 260.542 14.0224 259.726 15.4357L258.694 17.2232L269.585 23.5112L264.905 31.6172L232.98 13.1852L238.692 3.29171L238.716 3.25014ZM239.69 3.86771L234.554 12.7635L264.484 30.0435L268.012 23.9328L257.12 17.6448L258.752 14.8181C259.472 13.5711 259.907 12.3068 260.055 11.0255C260.176 9.72809 260.029 8.47914 259.614 7.27861C259.171 6.06207 258.479 4.92381 257.539 3.86384C256.599 2.80386 255.422 1.86587 254.009 1.04987C252.568 0.217867 251.154 -0.340143 249.766 -0.624163C248.35 -0.924184 247.018 -0.953928 245.771 -0.713394C244.524 -0.472861 243.382 0.0320927 242.347 0.801467C241.311 1.57084 240.434 2.57907 239.714 3.82614L239.69 3.86771ZM258.566 -31.1305L290.491 -12.6985L285.883 -4.71724L273.911 -11.6292L269.711 -4.35462L281.683 2.55738L277.075 10.5387L245.15 -7.89333L249.758 -15.8746L261.73 -8.96262L265.93 -16.2372L253.958 -23.1492L258.566 -31.1305ZM267.503 -16.6589L262.151 -7.38896L250.179 -14.301L246.723 -8.31499L276.653 8.96501L280.109 2.97904L268.137 -3.93296L273.489 -13.2029L285.461 -6.2909L288.917 -12.2769L258.987 -29.5569L255.531 -23.5709L267.503 -16.6589ZM261.536 -33.971L291.466 -16.691L294.922 -22.677L264.992 -39.957L261.536 -33.971ZM296.495 -23.0986L291.887 -15.1173L259.962 -33.5493L264.57 -41.5306L296.495 -23.0986ZM296.823 -41.8097C297.514 -42.8148 297.715 -43.8995 297.427 -45.0637C297.138 -46.228 296.595 -47.3358 295.798 -48.3872L303.672 -53.0973C304.083 -52.5279 304.565 -51.7319 305.12 -50.7093C305.691 -49.7145 306.137 -48.5337 306.456 -47.1669C306.748 -45.8161 306.806 -44.2857 306.632 -42.5758C306.43 -40.8818 305.753 -39.0372 304.601 -37.0419C303.337 -34.8526 301.927 -33.2097 300.37 -32.1132C298.813 -31.0167 297.181 -30.3333 295.473 -30.0631C293.781 -29.8206 292.045 -29.9176 290.264 -30.3542C288.457 -30.8068 286.697 -31.4715 284.986 -32.3484L278.543 -36.0684C276.98 -37.0081 275.58 -38.1674 274.343 -39.5462C273.096 -40.9687 272.164 -42.5228 271.548 -44.2085C270.905 -45.9102 270.641 -47.7252 270.757 -49.6537C270.888 -51.6099 271.53 -53.5857 272.682 -55.581C273.69 -57.3269 274.826 -58.6853 276.088 -59.6561C277.339 -60.6706 278.644 -61.3951 280.003 -61.8296C281.335 -62.2801 282.682 -62.5004 284.043 -62.4903C285.404 -62.4803 286.694 -62.3456 287.911 -62.0861L287.793 -52.9536C287.171 -53.0914 286.516 -53.1737 285.829 -53.2005C285.115 -53.2434 284.416 -53.185 283.733 -53.0253C283.066 -52.8933 282.471 -52.6638 281.95 -52.3367C281.401 -52.0255 280.988 -51.5987 280.712 -51.0562C280.102 -49.7451 280.031 -48.4376 280.498 -47.1336C280.964 -45.8296 281.89 -44.7777 283.276 -43.9777L289.303 -40.4977C290.689 -39.6977 292.077 -39.4137 293.467 -39.6456C294.873 -39.9053 295.992 -40.6267 296.823 -41.8097ZM297.773 -41.1506C296.766 -39.6627 295.422 -38.7756 293.742 -38.4894C292.062 -38.2031 290.39 -38.54 288.727 -39.5L282.7 -42.98C281.037 -43.94 279.916 -45.1973 279.335 -46.7518C278.77 -48.334 278.881 -49.9331 279.666 -51.549C279.974 -52.147 280.405 -52.6372 280.958 -53.0198C281.484 -53.4183 282.069 -53.7273 282.713 -53.9467C283.357 -54.1661 284.024 -54.2981 284.715 -54.3427C285.422 -54.4149 286.089 -54.4179 286.716 -54.3516L286.823 -61.1622C285.761 -61.3693 284.648 -61.4577 283.485 -61.4271C282.321 -61.3966 281.167 -61.1576 280.022 -60.7102C278.849 -60.2788 277.719 -59.6012 276.632 -58.6772C275.56 -57.781 274.568 -56.5431 273.656 -54.9635C272.6 -53.1344 272.018 -51.3271 271.911 -49.5414C271.792 -47.7995 272.037 -46.1433 272.645 -44.5727C273.226 -43.0182 274.087 -41.5974 275.228 -40.3103C276.369 -39.0232 277.666 -37.9418 279.119 -37.066L285.479 -33.394C287.028 -32.6846 288.637 -32.1436 290.306 -31.771C291.948 -31.4144 293.571 -31.3457 295.176 -31.5647C296.796 -31.8116 298.337 -32.4001 299.798 -33.3303C301.247 -34.3042 302.523 -35.7473 303.627 -37.6595C304.603 -39.3499 305.214 -40.919 305.458 -42.3667C305.675 -43.8303 305.689 -45.1341 305.5 -46.2781C305.298 -47.4657 304.974 -48.5031 304.525 -49.3903C304.077 -50.2774 303.661 -50.9976 303.278 -51.5511C302.224 -50.9405 301.265 -50.3673 300.401 -49.8313C299.537 -49.2954 298.57 -48.7083 297.5 -48.07C298.198 -47.0389 298.625 -45.9237 298.783 -44.7243C298.912 -43.5409 298.576 -42.3497 297.773 -41.1506ZM317.104 -76.4582C318.109 -75.767 318.931 -74.8862 319.569 -73.8156C320.18 -72.7611 320.559 -71.5627 320.708 -70.2205C320.857 -68.8782 320.747 -67.4082 320.379 -65.8102C319.999 -64.256 319.329 -62.6475 318.369 -60.9848C317.617 -59.6822 316.725 -58.553 315.693 -57.5971C314.66 -56.6412 313.54 -55.8841 312.331 -55.3258C311.11 -54.8113 309.822 -54.5015 308.468 -54.3964C307.087 -54.3073 305.69 -54.4484 304.279 -54.8199L305.431 -63.6322L306.586 -63.5199C306.57 -63.4922 306.735 -63.4895 307.08 -63.5118C307.442 -63.5618 307.871 -63.665 308.367 -63.8216C308.837 -63.9941 309.302 -64.2243 309.764 -64.512C310.225 -64.7996 310.557 -65.1812 310.757 -65.6566C310.841 -65.8666 310.912 -66.0846 310.968 -66.3106C310.997 -66.5526 310.99 -66.7967 310.948 -67.043C310.878 -67.3052 310.769 -67.534 310.623 -67.7291C310.466 -67.9679 310.227 -68.1615 309.906 -68.3098C309.529 -68.4901 309.065 -68.518 308.513 -68.3934C307.977 -68.2966 307.354 -68.083 306.647 -67.7528C305.966 -67.4065 305.33 -67.072 304.737 -66.7491C304.116 -66.4423 303.518 -66.1413 302.941 -65.8462C301.695 -65.1611 300.526 -64.5432 299.432 -63.9924C298.326 -63.4853 297.243 -63.113 296.182 -62.8756C295.121 -62.6382 294.043 -62.5954 292.949 -62.7471C291.842 -62.9426 290.651 -63.4083 289.377 -64.1443C287.935 -64.9763 286.843 -65.9953 286.098 -67.2012C285.353 -68.4072 284.9 -69.7032 284.74 -71.0891C284.552 -72.4911 284.623 -73.9276 284.955 -75.3987C285.287 -76.8697 285.824 -78.2784 286.564 -79.6246C287.492 -81.2319 288.543 -82.5093 289.719 -83.4567C290.894 -84.404 292.095 -85.0774 293.324 -85.4768C294.552 -85.8762 295.773 -86.0394 296.987 -85.9665C298.202 -85.8936 299.306 -85.6625 300.3 -85.2731L299.03 -76.6399C298.649 -76.7487 298.217 -76.832 297.733 -76.8897C297.249 -76.9475 296.769 -76.9476 296.292 -76.8902C295.788 -76.8488 295.321 -76.7119 294.891 -76.4797C294.461 -76.2474 294.118 -75.9096 293.862 -75.4662C293.606 -75.0228 293.513 -74.5409 293.582 -74.0207C293.64 -73.5441 293.932 -73.1538 294.458 -72.8498C294.846 -72.6258 295.332 -72.6038 295.916 -72.7838C296.517 -72.9915 297.362 -73.335 298.451 -73.8144L298.427 -73.7728C299.9 -74.6593 301.362 -75.4963 302.815 -76.2836C304.267 -77.071 305.728 -77.6499 307.198 -78.0205C308.685 -78.4187 310.197 -78.543 311.737 -78.3932C313.264 -78.2872 314.846 -77.7622 316.481 -76.8182L317.063 -76.4822L317.104 -76.4582ZM315.905 -75.8205C314.408 -76.6845 312.946 -77.1594 311.517 -77.2451C310.077 -77.3746 308.65 -77.238 307.235 -76.8355C305.82 -76.433 304.408 -75.8439 303 -75.0683C301.607 -74.3203 300.204 -73.5228 298.792 -72.6757C297.555 -72.1335 296.601 -71.7607 295.929 -71.5573C295.229 -71.3699 294.547 -71.4682 293.882 -71.8522C293.023 -72.3482 292.546 -72.9933 292.45 -73.7876C292.327 -74.5978 292.465 -75.3493 292.865 -76.0422C293.185 -76.5964 293.562 -77.0254 293.996 -77.3291C294.446 -77.6605 294.911 -77.8906 295.392 -78.0195C295.845 -78.1643 296.308 -78.2297 296.78 -78.2157C297.268 -78.2294 297.711 -78.1957 298.107 -78.1145C298.259 -79.2093 298.409 -80.2684 298.556 -81.2918C298.704 -82.3152 298.861 -83.3882 299.029 -84.5107C298.185 -84.7764 297.26 -84.9036 296.256 -84.8922C295.268 -84.9085 294.267 -84.7105 293.253 -84.2983C292.227 -83.9297 291.222 -83.3091 290.238 -82.4363C289.27 -81.5912 288.378 -80.4619 287.562 -79.0486C286.885 -77.8132 286.399 -76.5234 286.104 -75.1792C285.796 -73.8787 285.719 -72.593 285.872 -71.3222C286.013 -70.0951 286.417 -68.9383 287.083 -67.8518C287.721 -66.7812 288.678 -65.878 289.953 -65.142C291.089 -64.486 292.155 -64.0922 293.15 -63.9608C294.146 -63.8293 295.144 -63.8626 296.146 -64.0606C297.135 -64.3022 298.139 -64.6649 299.157 -65.1486C300.175 -65.6323 301.255 -66.1911 302.397 -66.825L306.151 -68.8147C307.038 -69.2633 307.821 -69.5317 308.5 -69.6199C309.196 -69.7359 309.828 -69.6477 310.399 -69.3555C310.886 -69.1112 311.261 -68.8019 311.526 -68.4276C311.778 -68.097 311.943 -67.7431 312.021 -67.3656C312.115 -67.0159 312.143 -66.6487 312.105 -66.2638C312.068 -65.879 311.983 -65.54 311.851 -65.2469C311.618 -64.716 311.261 -64.2572 310.779 -63.8704C310.285 -63.5273 309.766 -63.2359 309.221 -62.9962C308.692 -62.7842 308.168 -62.6436 307.647 -62.5745C307.127 -62.5054 306.683 -62.5034 306.314 -62.5685L305.581 -55.731C307.944 -55.2164 310.168 -55.4843 312.253 -56.5348C314.337 -57.5853 316.043 -59.2606 317.371 -61.5608C318.235 -63.0572 318.831 -64.5053 319.159 -65.905C319.503 -67.3323 319.618 -68.6516 319.504 -69.8627C319.39 -71.0738 319.076 -72.1607 318.56 -73.1235C318.017 -74.1024 317.312 -74.8974 316.445 -75.5085L315.905 -75.8205Z" fill="#4F4B50"/>
</svg>
