<svg width="40" height="40" viewBox="0 0 40 40" fill="none" xmlns="http://www.w3.org/2000/svg">
<path d="M20 7.90607L40 39.5326H0L20 7.90607Z" fill="url(#paint0_linear_1703_1121)"/>
<path d="M35.0779 11.4895C35.6766 7.80199 33.1726 4.32732 29.4851 3.72863C25.7975 3.12993 22.3229 5.63393 21.7242 9.32147C21.1255 13.009 23.6295 16.4837 27.317 17.0824C31.0046 17.6811 34.4792 15.1771 35.0779 11.4895Z" fill="#53C8EA"/>
<path d="M34.8299 11.4492C35.4286 7.7617 32.9246 4.28703 29.237 3.68834C25.5495 3.08965 22.0748 5.59365 21.4761 9.28119C20.8774 12.9687 23.3814 16.4434 27.069 17.0421C30.7565 17.6408 34.2312 15.1368 34.8299 11.4492Z" fill="#54C6E8"/>
<path d="M34.6009 11.4121C35.1996 7.72453 32.6956 4.24986 29.008 3.65117C25.3205 3.05248 21.8458 5.55648 21.2471 9.24402C20.6484 12.9316 23.1524 16.4062 26.84 17.0049C30.5275 17.6036 34.0022 15.0996 34.6009 11.4121Z" fill="#56C5E7"/>
<path d="M34.3719 11.3749C34.9706 7.68736 32.4666 4.21269 28.779 3.614C25.0915 3.01531 21.6168 5.51931 21.0181 9.20685C20.4194 12.8944 22.9234 16.3691 26.611 16.9678C30.2985 17.5664 33.7732 15.0624 34.3719 11.3749Z" fill="#57C3E5"/>
<path d="M34.1241 11.3347C34.7228 7.64714 32.2187 4.17247 28.5312 3.57378C24.8437 2.97509 21.369 5.47909 20.7703 9.16663C20.1716 12.8542 22.6756 16.3288 26.3632 16.9275C30.0507 17.5262 33.5254 15.0222 34.1241 11.3347Z" fill="#59C1E3"/>
<path d="M33.8951 11.2975C34.4938 7.60997 31.9897 4.1353 28.3022 3.53661C24.6147 2.93792 21.14 5.44192 20.5413 9.12946C19.9426 12.817 22.4466 16.2917 26.1342 16.8904C29.8217 17.4891 33.2964 14.985 33.8951 11.2975Z" fill="#5AC0E1"/>
<path d="M33.6661 11.2603C34.2647 7.5728 31.7607 4.09813 28.0732 3.49944C24.3857 2.90075 20.911 5.40475 20.3123 9.09228C19.7136 12.7798 22.2176 16.2545 25.9052 16.8532C29.5927 17.4519 33.0674 14.9479 33.6661 11.2603Z" fill="#5CBEE0"/>
<path d="M33.4183 11.2201C34.0169 7.53252 31.5129 4.05785 27.8254 3.45916C24.1379 2.86046 20.6632 5.36446 20.0645 9.052C19.4658 12.7395 21.9698 16.2142 25.6573 16.8129C29.3449 17.4116 32.8196 14.9076 33.4183 11.2201Z" fill="#5DBCDE"/>
<path d="M33.1892 11.1829C33.7879 7.49535 31.2839 4.02068 27.5964 3.42199C23.9089 2.82329 20.4342 5.32729 19.8355 9.01483C19.2368 12.7024 21.7408 16.177 25.4283 16.7757C29.1159 17.3744 32.5906 14.8704 33.1892 11.1829Z" fill="#5FBBDC"/>
<path d="M32.9602 11.1457C33.5589 7.45818 31.0549 3.98351 27.3674 3.38481C23.6799 2.78612 20.2052 5.29012 19.6065 8.97766C19.0078 12.6652 21.5118 16.1399 25.1993 16.7386C28.8869 17.3373 32.3616 14.8333 32.9602 11.1457Z" fill="#60B9DA"/>
<path d="M32.7124 11.1055C33.3111 7.41795 30.8071 3.94328 27.1196 3.34459C23.4321 2.7459 19.9574 5.2499 19.3587 8.93744C18.76 12.625 21.264 16.0997 24.9515 16.6983C28.6391 17.297 32.1138 14.793 32.7124 11.1055Z" fill="#62B7D9"/>
<path d="M32.4834 11.0683C33.0821 7.38078 30.5781 3.90611 26.8906 3.30742C23.203 2.70873 19.7284 5.21273 19.1297 8.90027C18.531 12.5878 21.035 16.0625 24.7225 16.6612C28.4101 17.2599 31.8847 14.7559 32.4834 11.0683Z" fill="#63B6D7"/>
<path d="M32.2544 11.0312C32.8531 7.34361 30.3491 3.86894 26.6616 3.27025C22.974 2.67156 19.4994 5.17556 18.9007 8.8631C18.302 12.5506 20.806 16.0253 24.4935 16.624C28.1811 17.2227 31.6557 14.7187 32.2544 11.0312Z" fill="#65B4D5"/>
<path d="M32.0066 10.9909C32.6053 7.30333 30.1013 3.82866 26.4138 3.22997C22.7262 2.63128 19.2516 5.13528 18.6529 8.82281C18.0542 12.5104 20.5582 15.985 24.2457 16.5837C27.9333 17.1824 31.4079 14.6784 32.0066 10.9909Z" fill="#66B2D3"/>
<path d="M31.7776 10.9537C32.3763 7.26616 29.8723 3.79149 26.1848 3.1928C22.4972 2.59411 19.0226 5.09811 18.4239 8.78564C17.8252 12.4732 20.3292 15.9479 24.0167 16.5466C27.7043 17.1452 31.1789 14.6412 31.7776 10.9537Z" fill="#68B1D2"/>
<path d="M31.5486 10.9165C32.1473 7.22899 29.6433 3.75432 25.9558 3.15563C22.2682 2.55694 18.7936 5.06094 18.1949 8.74847C17.5962 12.436 20.1002 15.9107 23.7877 16.5094C27.4753 17.1081 30.9499 14.6041 31.5486 10.9165Z" fill="#69AFD0"/>
<path d="M31.3006 10.8763C31.8993 7.18877 29.3953 3.7141 25.7077 3.11541C22.0202 2.51671 18.5455 5.02071 17.9468 8.70825C17.3481 12.3958 19.8521 15.8705 23.5397 16.4692C27.2272 17.0678 30.7019 14.5638 31.3006 10.8763Z" fill="#6BADCE"/>
<path d="M31.0718 10.8391C31.6705 7.1516 29.1665 3.67693 25.479 3.07824C21.7914 2.47954 18.3168 4.98354 17.7181 8.67108C17.1194 12.3586 19.6234 15.8333 23.3109 16.432C26.9985 17.0307 30.4731 14.5267 31.0718 10.8391Z" fill="#6CACCC"/>
<path d="M30.8428 10.802C31.4415 7.11443 28.9375 3.63976 25.25 3.04106C21.5624 2.44237 18.0877 4.94637 17.4891 8.63391C16.8904 12.3215 19.3944 15.7961 23.0819 16.3948C26.7694 16.9935 30.2441 14.4895 30.8428 10.802Z" fill="#6EAACB"/>
<path d="M30.595 10.7617C31.1937 7.07414 28.6897 3.59947 25.0022 3.00078C21.3146 2.40209 17.8399 4.90609 17.2413 8.59363C16.6426 12.2812 19.1466 15.7558 22.8341 16.3545C26.5216 16.9532 29.9963 14.4492 30.595 10.7617Z" fill="#6FA8C9"/>
<path d="M30.366 10.7245C30.9647 7.03697 28.4607 3.5623 24.7732 2.96361C21.0856 2.36492 17.6109 4.86892 17.0122 8.55646C16.4136 12.244 18.9176 15.7187 22.6051 16.3174C26.2926 16.9161 29.7673 14.412 30.366 10.7245Z" fill="#71A7C7"/>
<path d="M30.137 10.6873C30.7357 6.9998 28.2317 3.52513 24.5441 2.92644C20.8566 2.32775 17.3819 4.83175 16.7832 8.51929C16.1846 12.2068 18.6886 15.6815 22.3761 16.2802C26.0636 16.8789 29.5383 14.3749 30.137 10.6873Z" fill="#72A5C5"/>
<path d="M29.889 10.6471C30.4876 6.95958 27.9836 3.48491 24.2961 2.88622C20.6086 2.28753 17.1339 4.79153 16.5352 8.47906C15.9365 12.1666 18.4405 15.6413 22.1281 16.24C25.8156 16.8387 29.2903 14.3347 29.889 10.6471Z" fill="#74A3C4"/>
<path d="M29.6602 10.6099C30.2589 6.92241 27.7549 3.44774 24.0673 2.84905C20.3798 2.25036 16.9051 4.75436 16.3064 8.44189C15.7077 12.1294 18.2118 15.6041 21.8993 16.2028C25.5868 16.8015 29.0615 14.2975 29.6602 10.6099Z" fill="#75A2C2"/>
<path d="M29.4312 10.5727C30.0299 6.88518 27.5259 3.41051 23.8383 2.81182C20.1508 2.21313 16.6761 4.71712 16.0774 8.40466C15.4787 12.0922 17.9827 15.5669 21.6703 16.1656C25.3578 16.7643 28.8325 14.2603 29.4312 10.5727Z" fill="#77A0C0"/>
<path d="M29.1831 10.5325C29.7818 6.84495 27.2778 3.37029 23.5903 2.77159C19.9028 2.1729 16.4281 4.6769 15.8294 8.36444C15.2307 12.052 17.7347 15.5267 21.4222 16.1253C25.1098 16.724 28.5845 14.22 29.1831 10.5325Z" fill="#789EBF"/>
<path d="M28.9541 10.4953C29.5528 6.80778 27.0488 3.33312 23.3613 2.73442C19.6738 2.13573 16.1991 4.63973 15.6004 8.32727C15.0017 12.0148 17.5057 15.4895 21.1932 16.0882C24.8808 16.6869 28.3555 14.1829 28.9541 10.4953Z" fill="#799DBD"/>
<path d="M28.7254 10.4582C29.3241 6.77061 26.8201 3.29595 23.1325 2.69725C19.445 2.09856 15.9703 4.60256 15.3716 8.2901C14.7729 11.9776 17.2769 15.4523 20.9645 16.051C24.652 16.6497 28.1267 14.1457 28.7254 10.4582Z" fill="#7B9BBB"/>
<path d="M28.4773 10.4179C29.076 6.73033 26.572 3.25566 22.8845 2.65697C19.1969 2.05828 15.7223 4.56228 15.1236 8.24982C14.5249 11.9374 17.0289 15.412 20.7164 16.0107C24.404 16.6094 27.8786 14.1054 28.4773 10.4179Z" fill="#7C99B9"/>
<path d="M28.2483 10.3807C28.847 6.69316 26.343 3.21849 22.6555 2.6198C18.9679 2.02111 15.4933 4.52511 14.8946 8.21265C14.2959 11.9002 16.7999 15.3749 20.4874 15.9736C24.175 16.5722 27.6496 14.0682 28.2483 10.3807Z" fill="#7E98B8"/>
<path d="M28.0193 10.3435C28.618 6.65599 26.114 3.18132 22.4265 2.58263C18.7389 1.98394 15.2643 4.48794 14.6656 8.17548C14.0669 11.863 16.5709 15.3377 20.2584 15.9364C23.946 16.5351 27.4206 14.0311 28.0193 10.3435Z" fill="#7F96B6"/>
<path d="M27.7715 10.3033C28.3702 6.61577 25.8662 3.1411 22.1787 2.54241C18.4911 1.94372 15.0165 4.44771 14.4178 8.13525C13.8191 11.8228 16.3231 15.2975 20.0106 15.8962C23.6982 16.4949 27.1728 13.9908 27.7715 10.3033Z" fill="#8194B4"/>
<path d="M27.5425 10.2661C28.1412 6.5786 25.6372 3.10393 21.9497 2.50524C18.2621 1.90655 14.7875 4.41054 14.1888 8.09808C13.5901 11.7856 16.0941 15.2603 19.7816 15.859C23.4692 16.4577 26.9438 13.9537 27.5425 10.2661Z" fill="#8293B2"/>
<path d="M27.3135 10.229C27.9122 6.54143 25.4082 3.06676 21.7207 2.46807C18.0331 1.86938 14.5585 4.37337 13.9598 8.06091C13.3611 11.7485 15.8651 15.2231 19.5526 15.8218C23.2402 16.4205 26.7148 13.9165 27.3135 10.229Z" fill="#8491B1"/>
<path d="M27.0657 10.1887C27.6644 6.50114 25.1604 3.02647 21.4729 2.42778C17.7853 1.82909 14.3106 4.33309 13.712 8.02063C13.1133 11.7082 15.6173 15.1828 19.3048 15.7815C22.9923 16.3802 26.467 13.8762 27.0657 10.1887Z" fill="#858FAF"/>
<path d="M26.8367 10.1515C27.4354 6.46397 24.9314 2.9893 21.2439 2.39061C17.5563 1.79192 14.0816 4.29592 13.483 7.98346C12.8843 11.671 15.3883 15.1457 19.0758 15.7444C22.7633 16.3431 26.238 13.8391 26.8367 10.1515Z" fill="#878EAD"/>
<path d="M26.6077 10.1143C27.2064 6.4268 24.7024 2.95213 21.0149 2.35344C17.3273 1.75475 13.8526 4.25875 13.2539 7.94629C12.6553 11.6338 15.1593 15.1085 18.8468 15.7072C22.5343 16.3059 26.009 13.8019 26.6077 10.1143Z" fill="#888CAB"/>
<path d="M26.3597 10.0741C26.9584 6.38658 24.4543 2.91191 20.7668 2.31322C17.0793 1.71453 13.6046 4.21853 13.0059 7.90607C12.4072 11.5936 14.9112 15.0683 18.5988 15.667C22.2863 16.2657 25.761 13.7617 26.3597 10.0741Z" fill="#8A8AAA"/>
<path d="M26.1309 10.0369C26.7296 6.34941 24.2256 2.87474 20.538 2.27605C16.8505 1.67736 13.3758 4.18136 12.7771 7.8689C12.1785 11.5564 14.6825 15.0311 18.37 15.6298C22.0575 16.2285 25.5322 13.7245 26.1309 10.0369Z" fill="#8B88A8"/>
<path d="M25.9019 9.99978C26.5006 6.31224 23.9966 2.83757 20.309 2.23888C16.6215 1.64019 13.1468 4.14419 12.5481 7.83173C11.9494 11.5193 14.4535 14.9939 18.141 15.5926C21.8285 16.1913 25.3032 13.6873 25.9019 9.99978Z" fill="#8D87A6"/>
<path d="M25.6538 9.9595C26.2525 6.27196 23.7485 2.79729 20.061 2.1986C16.3735 1.59991 12.8988 4.1039 12.3001 7.79144C11.7014 11.479 14.2054 14.9537 17.8929 15.5523C21.5805 16.151 25.0552 13.647 25.6538 9.9595Z" fill="#8E85A4"/>
<path d="M25.4251 9.92233C26.0238 6.23479 23.5198 2.76012 19.8322 2.16143C16.1447 1.56273 12.67 4.06673 12.0713 7.75427C11.4726 11.4418 13.9766 14.9165 17.6642 15.5152C21.3517 16.1139 24.8264 13.6099 25.4251 9.92233Z" fill="#9083A3"/>
<path d="M25.1961 9.88515C25.7948 6.19762 23.2908 2.72295 19.6032 2.12426C15.9157 1.52556 12.441 4.02956 11.8423 7.7171C11.2436 11.4046 13.7476 14.8793 17.4352 15.478C21.1227 16.0767 24.5974 13.5727 25.1961 9.88515Z" fill="#9182A1"/>
<path d="M24.948 9.84493C25.5467 6.15739 23.0427 2.68272 19.3552 2.08403C15.6676 1.48534 12.193 3.98934 11.5943 7.67688C10.9956 11.3644 13.4996 14.8391 17.1871 15.4378C20.8747 16.0365 24.3493 13.5325 24.948 9.84493Z" fill="#93809F"/>
<path d="M24.7193 9.80776C25.318 6.12022 22.814 2.64555 19.1264 2.04686C15.4389 1.44817 11.9642 3.95217 11.3655 7.63971C10.7668 11.3272 13.2708 14.8019 16.9584 15.4006C20.6459 15.9993 24.1206 13.4953 24.7193 9.80776Z" fill="#947E9D"/>
<path d="M24.4903 9.77059C25.089 6.08305 22.585 2.60838 18.8974 2.00969C15.2099 1.411 11.7352 3.915 11.1365 7.60254C10.5378 11.2901 13.0418 14.7648 16.7294 15.3634C20.4169 15.9621 23.8916 13.4581 24.4903 9.77059Z" fill="#967D9C"/>
<path d="M24.2422 9.73031C24.8409 6.04277 22.3369 2.5681 18.6494 1.96941C14.9618 1.37072 11.4872 3.87472 10.8885 7.56226C10.2898 11.2498 12.7938 14.7245 16.4813 15.3232C20.1689 15.9219 23.6435 13.4178 24.2422 9.73031Z" fill="#977B9A"/>
<path d="M24.0135 9.69314C24.6122 6.0056 22.1082 2.53093 18.4206 1.93224C14.7331 1.33355 11.2584 3.83755 10.6597 7.52509C10.061 11.2126 12.565 14.6873 16.2526 15.286C19.9401 15.8847 23.4148 13.3807 24.0135 9.69314Z" fill="#997998"/>
<path d="M23.7845 9.65597C24.3832 5.96843 21.8791 2.49376 18.1916 1.89507C14.5041 1.29638 11.0294 3.80038 10.4307 7.48791C9.83201 11.1755 12.336 14.6501 16.0236 15.2488C19.7111 15.8475 23.1858 13.3435 23.7845 9.65597Z" fill="#9A7896"/>
<path d="M23.5364 9.61568C24.1351 5.92815 21.6311 2.45348 17.9436 1.85479C14.256 1.25609 10.7814 3.76009 10.1827 7.44763C9.58397 11.1352 12.088 14.6098 15.7755 15.2085C19.4631 15.8072 22.9377 13.3032 23.5364 9.61568Z" fill="#9B7695"/>
<path d="M23.3074 9.57858C23.9061 5.89104 21.4021 2.41637 17.7146 1.81768C14.027 1.21898 10.5523 3.72298 9.95366 7.41052C9.35496 11.0981 11.859 14.5727 15.5465 15.1714C19.234 15.7701 22.7087 13.2661 23.3074 9.57858Z" fill="#9D7493"/>
<path d="M23.0787 9.5414C23.6773 5.85387 21.1733 2.3792 17.4858 1.78051C13.7983 1.18181 10.3236 3.68581 9.7249 7.37335C9.1262 11.0609 11.6302 14.5356 15.3177 15.1343C19.0053 15.7329 22.48 13.2289 23.0787 9.5414Z" fill="#9E7391"/>
<path d="M22.8497 9.50423C23.4483 5.8167 20.9443 2.34203 17.2568 1.74334C13.5693 1.14464 10.0946 3.64864 9.49589 7.33618C8.8972 11.0237 11.4012 14.4984 15.0887 15.0971C18.7763 15.6958 22.251 13.1918 22.8497 9.50423Z" fill="#A07190"/>
<path d="M22.6016 9.46395C23.2003 5.77641 20.6963 2.30174 17.0087 1.70305C13.3212 1.10436 9.84654 3.60836 9.24785 7.2959C8.64915 10.9834 11.1532 14.4581 14.8407 15.0568C18.5282 15.6555 22.0029 13.1515 22.6016 9.46395Z" fill="#A16F8E"/>
<path d="M22.3728 9.42678C22.9715 5.73924 20.4675 2.26457 16.78 1.66588C13.0925 1.06719 9.61778 3.57119 9.01909 7.25873C8.42039 10.9463 10.9244 14.4209 14.6119 15.0196C18.2995 15.6183 21.7742 13.1143 22.3728 9.42678Z" fill="#A36E8C"/>
<path d="M22.1438 9.38961C22.7425 5.70207 20.2385 2.2274 16.551 1.62871C12.8634 1.03002 9.38877 3.53402 8.79008 7.22156C8.19139 10.9091 10.6954 14.3838 14.3829 14.9825C18.0705 15.5812 21.5451 13.0771 22.1438 9.38961Z" fill="#A46C8A"/>
<path d="M21.8958 9.34933C22.4945 5.66179 19.9905 2.18712 16.3029 1.58843C12.6154 0.989737 9.14073 3.49374 8.54203 7.18127C7.94334 10.8688 10.4473 14.3435 14.1349 14.9422C17.8224 15.5409 21.2971 13.0369 21.8958 9.34933Z" fill="#A66A89"/>
<path d="M21.6668 9.31216C22.2655 5.62462 19.7615 2.14995 16.0739 1.55126C12.3864 0.952566 8.91172 3.45656 8.31303 7.1441C7.71434 10.8316 10.2183 14.3063 13.9059 14.905C17.5934 15.5037 21.0681 12.9997 21.6668 9.31216Z" fill="#A76987"/>
<path d="M21.4378 9.27499C22.0365 5.58745 19.5325 2.11278 15.8449 1.51409C12.1574 0.915396 8.68272 3.41939 8.08403 7.10693C7.48534 10.7945 9.98934 14.2691 13.6769 14.8678C17.3644 15.4665 20.8391 12.9625 21.4378 9.27499Z" fill="#A96785"/>
<path d="M21.19 9.23476C21.7887 5.54723 19.2847 2.07256 15.5971 1.47387C11.9096 0.875174 8.43492 3.37917 7.83622 7.06671C7.23753 10.7543 9.74154 14.2289 13.4291 14.8276C17.1166 15.4263 20.5913 12.9223 21.19 9.23476Z" fill="#AA6583"/>
<path d="M20.961 9.19759C21.5597 5.51005 19.0557 2.03539 15.3681 1.43669C11.6806 0.838003 8.20591 3.342 7.60722 7.02954C7.00853 10.7171 9.51253 14.1918 13.2001 14.7904C16.8876 15.3891 20.3623 12.8851 20.961 9.19759Z" fill="#AC6482"/>
<path d="M20.732 9.16042C21.3307 5.47288 18.8267 1.99822 15.1391 1.39952C11.4516 0.800833 7.97691 3.30483 7.37822 6.99237C6.77952 10.6799 9.28353 14.1546 12.9711 14.7533C16.6586 15.352 20.1333 12.848 20.732 9.16042Z" fill="#AD6280"/>
<path d="M20.4839 9.12014C21.0826 5.4326 18.5786 1.95793 14.8911 1.35924C11.2035 0.76055 7.72886 3.26455 7.13017 6.95209C6.53148 10.6396 9.03548 14.1143 12.723 14.713C16.4106 15.3117 19.8852 12.8077 20.4839 9.12014Z" fill="#AF607E"/>
<path d="M20.2552 9.08297C20.8539 5.39543 18.3499 1.92076 14.6623 1.32207C10.9748 0.723379 7.5001 3.22738 6.90141 6.91492C6.30272 10.6025 8.80672 14.0771 12.4943 14.6758C16.1818 15.2745 19.6565 12.7705 20.2552 9.08297Z" fill="#B05F7C"/>
<path d="M20.0262 9.0458C20.6249 5.35826 18.1208 1.88359 14.4333 1.2849C10.7458 0.686209 7.2711 3.19021 6.67241 6.87775C6.07371 10.5653 8.57772 14.04 12.2653 14.6387C15.9528 15.2373 19.4275 12.7333 20.0262 9.0458Z" fill="#B25D7B"/>
<path d="M19.7781 9.00558C20.3768 5.31804 17.8728 1.84337 14.1853 1.24468C10.4977 0.645987 7.02305 3.14999 6.42436 6.83752C5.82567 10.5251 8.32967 13.9997 12.0172 14.5984C15.7048 15.1971 19.1794 12.6931 19.7781 9.00558Z" fill="#B35B79"/>
<path d="M19.5494 8.96841C20.148 5.28087 17.644 1.8062 13.9565 1.20751C10.269 0.608816 6.79429 3.11281 6.1956 6.80035C5.59691 10.4879 8.10091 13.9626 11.7885 14.5613C15.476 15.16 18.9507 12.6559 19.5494 8.96841Z" fill="#B55A77"/>
<path d="M19.3204 8.93124C19.919 5.2437 17.415 1.76903 13.7275 1.17034C10.04 0.571646 6.56529 3.07564 5.9666 6.76318C5.3679 10.4507 7.87191 13.9254 11.5594 14.5241C15.247 15.1228 18.7217 12.6188 19.3204 8.93124Z" fill="#B65875"/>
<path d="M19.0723 8.89095C19.671 5.20341 17.167 1.72875 13.4795 1.13005C9.79191 0.531363 6.31724 3.03536 5.71855 6.7229C5.11986 10.4104 7.62386 13.8851 11.3114 14.4838C14.9989 15.0825 18.4736 12.5785 19.0723 8.89095Z" fill="#B85674"/>
<path d="M18.8435 8.85378C19.4422 5.16624 16.9382 1.69158 13.2507 1.09288C9.56315 0.494192 6.08848 2.99819 5.48979 6.68573C4.8911 10.3733 7.3951 13.8479 11.0826 14.4466C14.7702 15.0453 18.2449 12.5413 18.8435 8.85378Z" fill="#B95572"/>
<path d="M18.6145 8.81661C19.2132 5.12907 16.7092 1.6544 13.0217 1.05571C9.33415 0.457022 5.85948 2.96102 5.26078 6.64856C4.66209 10.3361 7.1661 13.8108 10.8536 14.4095C14.5412 15.0082 18.0159 12.5042 18.6145 8.81661Z" fill="#BB5370"/>
<path d="M18.3665 8.77633C18.9652 5.08879 16.4612 1.61412 12.7736 1.01543C9.0861 0.416739 5.61143 2.92074 5.01274 6.60828C4.41405 10.2958 6.91805 13.7705 10.6056 14.3692C14.2931 14.9679 17.7678 12.4639 18.3665 8.77633Z" fill="#BC516E"/>
<path d="M18.1377 8.73922C18.7364 5.05168 16.2324 1.57701 12.5449 0.978321C8.85734 0.379629 5.38267 2.88363 4.78398 6.57117C4.18529 10.2587 6.68929 13.7334 10.3768 14.3321C14.0644 14.9308 17.539 12.4268 18.1377 8.73922Z" fill="#BE506D"/>
<path d="M17.9087 8.70205C18.5074 5.01451 16.0034 1.53984 12.3159 0.94115C8.62834 0.342459 5.15367 2.84646 4.55497 6.534C3.95628 10.2215 6.46029 13.6962 10.1478 14.2949C13.8354 14.8936 17.31 12.3896 17.9087 8.70205Z" fill="#BF4E6B"/>
<defs>
<linearGradient id="paint0_linear_1703_1121" x1="20" y1="-4.14213" x2="20" y2="36.5205" gradientUnits="userSpaceOnUse">
<stop stop-color="#77D4EE"/>
<stop offset="1" stop-color="#77D4EE" stop-opacity="0"/>
</linearGradient>
</defs>
</svg>
